<?xml version="1.0" encoding="UTF-8" standalone="no"?>
<!-- Generator: Adobe Illustrator 21.0.2, SVG Export Plug-In . SVG Version: 6.00 Build 0)  -->

<svg
   xmlns:dc="http://purl.org/dc/elements/1.1/"
   xmlns:cc="http://creativecommons.org/ns#"
   xmlns:rdf="http://www.w3.org/1999/02/22-rdf-syntax-ns#"
   xmlns:svg="http://www.w3.org/2000/svg"
   xmlns="http://www.w3.org/2000/svg"
   xmlns:sodipodi="http://sodipodi.sourceforge.net/DTD/sodipodi-0.dtd"
   xmlns:inkscape="http://www.inkscape.org/namespaces/inkscape"
   version="1.1"
   id="Calque_1"
   x="0px"
   y="0px"
   viewBox="0 0 294.86512 269.89349"
   xml:space="preserve"
   sodipodi:docname="logo_8.svg"
   inkscape:version="0.92.3 (2405546, 2018-03-11)"
   width="294.86511"
   height="269.89349"><metadata
   id="metadata35"><rdf:RDF><cc:Work
       rdf:about=""><dc:format>image/svg+xml</dc:format><dc:type
         rdf:resource="http://purl.org/dc/dcmitype/StillImage" /><dc:title></dc:title></cc:Work></rdf:RDF></metadata><defs
   id="defs33" /><sodipodi:namedview
   pagecolor="#ffffff"
   bordercolor="#666666"
   borderopacity="1"
   objecttolerance="10"
   gridtolerance="10"
   guidetolerance="10"
   inkscape:pageopacity="0"
   inkscape:pageshadow="2"
   inkscape:window-width="1920"
   inkscape:window-height="1017"
   id="namedview31"
   showgrid="false"
   inkscape:zoom="1.1212733"
   inkscape:cx="-52.425326"
   inkscape:cy="33.561091"
   inkscape:window-x="-8"
   inkscape:window-y="-8"
   inkscape:window-maximized="1"
   inkscape:current-layer="Calque_1"
   fit-margin-top="0"
   fit-margin-left="0"
   fit-margin-right="0"
   fit-margin-bottom="0" />
<style
   type="text/css"
   id="style2">
	.st0{fill:#FF3D1F;}
</style>
<path
   class="st0"
   d="m 183.60866,70.224127 c 0,-4.2 -0.8,-8.2 -2.4,-11.9 -1.6,-3.7 -3.8,-7 -6.7,-9.8 -2.9,-2.9 -6.2,-5.1 -9.9,-6.7 -3.7,-1.6 -7.7,-2.4 -12,-2.4 h -7 c -4.3,0 -8.2,0.8 -12.00001,2.4 -3.69999,1.6 -6.99999,3.8 -9.89999,6.7 -2.9,2.9 -5.1,6.1 -6.7,9.8 -1.6,3.7 -2.4,7.7 -2.4,11.9 v 24.100004 c 0,4.2 0.8,8.299999 2.4,12.099999 1.6,3.8 3.8,7.1 6.7,9.8 2.9,2.8 6.2,4.9 9.89999,6.5 3.70001,1.6 7.70001,2.4 12.00001,2.4 h 7 c 4.2,0 8.2,-0.8 12,-2.4 3.7,-1.6 7,-3.8 9.9,-6.5 2.9,-2.7 5.1,-6 6.7,-9.8 1.6,-3.8 2.4,-7.799999 2.4,-12.099999 z m 3.1,106.300003 c 0,-4.2 -0.8,-8.2 -2.4,-11.9 -1.6,-3.7 -3.8,-7 -6.6,-9.8 -2.9,-2.9 -6.2,-5.1 -10,-6.7 -3.8,-1.6 -7.8,-2.4 -12,-2.4 h -13.3 c -4.2,0 -8.2,0.8 -12,2.4 -3.8,1.6 -7.1,3.8 -10,6.7 -2.8,2.9 -5.1,6.1 -6.6,9.8 -1.6,3.7 -2.4,7.7 -2.4,11.9 v 24.1 c 0,4.2 0.8,8.2 2.4,11.9 1.6,3.7 3.8,7 6.6,9.8 2.8,2.9 6.2,5.1 10,6.7 3.8,1.6 7.8,2.4 12,2.4 h 13.3 c 4.2,0 8.2,-0.8 12,-2.4 3.8,-1.6 7.1,-3.8 10,-6.7 2.8,-2.9 5.1,-6.1 6.6,-9.8 1.6,-3.7 2.4,-7.7 2.4,-11.9 z m 15.8,44.3 c -2.7,6.2 -6.3,11.7 -11,16.4 -4.7,4.7 -10.1,8.3 -16.4,11 -6.3,2.6 -13,4 -20.2,4 h -13.4 c -7.2,0 -13.9,-1.3 -20.2,-4 -6.3,-2.6 -11.7,-6.3 -16.4,-11 -4.69999,-4.7 -8.299994,-10.1 -10.999994,-16.4 -2.7,-6.2 -4,-13 -4,-20.2 v -24.1 c 0,-8.9 2,-17 6,-24.3 4,-7.3 9.399994,-13.3 16.199994,-17.9 -5.9,-4.9 -10.59999,-10.7 -13.999994,-17.6 -3.4,-6.9 -5.1,-14.3 -5.1,-22.399999 V 70.224127 c 0,-7 1.4,-13.6 4.1,-19.8 2.8,-6.2 6.499994,-11.7 11.099994,-16.4 4.7,-4.6 10.1,-8.4 16.4,-11.1 6.3,-2.7 12.9,-4.1 19.9,-4.1 h 7 c 7,0 13.6,1.4 19.9,4.1 6.3,2.8 11.7,6.5 16.4,11.1 4.7,4.7 8.4,10.1 11.1,16.4 2.8,6.2 4.1,12.9 4.1,19.8 v 24.100004 c 0,7.999999 -1.7,15.499999 -5.1,22.399999 -3.4,6.9 -8,12.7 -14,17.6 6.8,4.7 12.2,10.6 16.2,17.9 4,7.3 6,15.4 6,24.3 v 24.1 c 0.4,7.3 -1,14 -3.6,20.2 z"
   id="path4"
   inkscape:connector-curvature="0"
   style="fill:#ff3d1f" />












<rect
   style="opacity:1;fill:none;fill-opacity:1;stroke:none;stroke-width:25.48473167;stroke-linejoin:round;stroke-miterlimit:4;stroke-dasharray:none;stroke-opacity:1"
   id="rect37"
   width="294.86511"
   height="269.89349"
   x="0"
   y="0" /></svg>