<?xml version="1.0" encoding="UTF-8"?>
<!-- Generator: Adobe Illustrator 14.0.0, SVG Export Plug-In . SVG Version: 6.00 Build 43363)  -->
<!DOCTYPE svg PUBLIC "-//W3C//DTD SVG 1.1//EN" "http://www.w3.org/Graphics/SVG/1.1/DTD/svg11.dtd">
<svg version="1.1" id="svg1800" xmlns:rdf="http://www.w3.org/1999/02/22-rdf-syntax-ns#" sodipodi:docbase="/home/rugby471/Desktop" xmlns:cc="http://web.resource.org/cc/" inkscape:version="0.45" sodipodi:modified="true" xmlns:sodipodi="http://sodipodi.sourceforge.net/DTD/sodipodi-0.dtd" xmlns:svg="http://www.w3.org/2000/svg" sodipodi:version="0.32" xmlns:dc="http://purl.org/dc/elements/1.1/" sodipodi:docname="+.svg" xmlns:inkscape="http://www.inkscape.org/namespaces/inkscape" inkscape:output_extension="org.inkscape.output.svg.inkscape" xmlns="http://www.w3.org/2000/svg" xmlns:xlink="http://www.w3.org/1999/xlink" x="0px" y="0px" width="161.98px" height="185.121px" viewBox="0 0 161.98 185.121" enable-background="new 0 0 161.98 185.121" xml:space="preserve">
<sodipodi:namedview height="185.12px" width="161.98px" id="base" inkscape:window-width="1024" inkscape:window-height="712" inkscape:pageshadow="2" inkscape:pageopacity="0.0" guidetolerance="10.0" gridtolerance="10.0" objecttolerance="10.0" borderopacity="1.0" inkscape:zoom="2.1197917" inkscape:cx="48.381201" inkscape:cy="119.58332" pagecolor="#ffffff" inkscape:window-x="0" inkscape:window-y="0" inkscape:current-layer="svg1800" bordercolor="#666666">
	</sodipodi:namedview>
<path id="path1650" fill="#005DA8" stroke="#005DA8" stroke-width="3.5551" stroke-linecap="round" stroke-linejoin="round" d="  M159.147,80.934c0,43.196-35.018,78.214-78.213,78.214c-43.196,0-78.213-35.019-78.213-78.214c0-43.196,35.017-78.213,78.213-78.213  C124.13,2.721,159.147,37.738,159.147,80.934L159.147,80.934z"/>
<path id="path3068" sodipodi:nodetypes="csssc" fill="#FFFEFF" fill-opacity="0.3066" d="M155.306,77.153  c4.245,42.632-22.77-16.2-70.256,1.454C37.188,96.4,3.971,123.48,7.678,77.153C11.052,34.996,40.748,3.339,81.493,3.339  S155.306,36.407,155.306,77.153z"/>
<path id="path3392" fill="none" stroke="#005DA8" stroke-width="3.4402" stroke-linecap="round" stroke-linejoin="round" d="  M157.143,80.591c0,41.8-33.887,75.685-75.686,75.685c-41.8,0-75.685-33.885-75.685-75.685c0-41.799,33.886-75.685,75.686-75.685  C123.258,4.906,157.143,38.792,157.143,80.591L157.143,80.591z"/>
<path id="rect3139" fill="#FFFFFF" d="M66.25,36.331v29.786H36.464v28.669H66.25v29.784h28.669V94.787h29.786v-28.67H94.919V36.331  H66.25z"/>
</svg>